<svg xmlns="http://www.w3.org/2000/svg" display="none">
    <symbol id="wagtail-live-logo" viewBox="0 0 185 50">
        <g opacity=".4" fill="#fff">
            <path
                d="M139.792 33h4.592V13.176h-4.592V33zm10.417-15.764c1.568 0 2.744-1.204 2.744-2.744 0-1.54-1.176-2.744-2.744-2.744-1.568 0-2.744 1.204-2.744 2.744 0 1.54 1.176 2.744 2.744 2.744zM147.913 33h4.592V18.888h-4.592V33zm11.592 0h4.032l4.9-14.112h-4.592l-2.324 7.896-2.324-7.896h-4.592l4.9 14.112zm23.993-7.336c0-2.968-1.596-7-6.916-7-5.096 0-7.112 3.948-7.112 7.28 0 3.332 2.016 7.28 7.112 7.28 3.416 0 5.516-1.54 6.692-4.116l-3.64-1.288c-.756 1.26-1.596 1.68-2.856 1.68-1.232 0-2.38-.616-2.8-2.156h9.52v-1.68zm-9.464-1.512c.448-1.512 1.456-2.156 2.548-2.156 1.568 0 2.436.952 2.576 2.156h-5.124z"
            />
            <path
                d="M139.792 33h4.592V13.176h-4.592V33zm10.417-15.764c1.568 0 2.744-1.204 2.744-2.744 0-1.54-1.176-2.744-2.744-2.744-1.568 0-2.744 1.204-2.744 2.744 0 1.54 1.176 2.744 2.744 2.744zM147.913 33h4.592V18.888h-4.592V33zm11.592 0h4.032l4.9-14.112h-4.592l-2.324 7.896-2.324-7.896h-4.592l4.9 14.112zm23.993-7.336c0-2.968-1.596-7-6.916-7-5.096 0-7.112 3.948-7.112 7.28 0 3.332 2.016 7.28 7.112 7.28 3.416 0 5.516-1.54 6.692-4.116l-3.64-1.288c-.756 1.26-1.596 1.68-2.856 1.68-1.232 0-2.38-.616-2.8-2.156h9.52v-1.68zm-9.464-1.512c.448-1.512 1.456-2.156 2.548-2.156 1.568 0 2.436.952 2.576 2.156h-5.124z"
            />
        </g>
        <path
            d="M33.11.753V3.01s-4.021-1.505-6.622 1.228c-1.892 1.981-2.05 4.2-1.183 7.172 8.514 0 9.854 4.793 9.854 4.793l-.867-5.507 2.68-3.288c0-3.883-3.192-6.458-3.863-6.656z"
            fill="#fff"
        />
        <path
            d="M33.858 7.33c.566 0 1.025-.462 1.025-1.03 0-.57-.459-1.03-1.025-1.03-.566 0-1.024.46-1.024 1.03 0 .568.458 1.03 1.024 1.03z"
            fill="#000"
        />
        <path
            d="M35.16 16.204s-1.302-6.576-9.815-4.793c-.868-2.972-.71-5.151 1.182-7.172 2.562-2.733 6.582-1.228 6.582-1.228V.753C31.69.119 30.35 0 28.853 0c-5.48 0-8.514 4.12-9.815 6.894L3.626 35.38l4.336-.832L0 50l5.558-.99 4.257-12.164c12.06 0 27.512-4.358 25.344-20.642z"
            fill="#000"
        />
        <path
            d="M40.362 10.697l-3.39-3.288-2.68 3.288h6.07z"
            fill="#000"
        />
        <path
            d="M11.825 33.32s.394-.08 1.103-.238a72.04 72.04 0 002.878-.713 25.162 25.162 0 001.892-.594c.67-.238 1.38-.476 2.05-.792.709-.278 1.418-.634 2.128-1.03.71-.397 1.38-.833 2.01-1.348.158-.119.315-.237.473-.396l.473-.396c.276-.277.591-.555.867-.872.276-.277.513-.594.75-.91.117-.16.236-.318.354-.476l.157-.238.158-.238c.079-.158.197-.317.276-.475.079-.159.158-.317.276-.476l.118-.237.119-.238c.078-.159.157-.317.197-.476l.354-.95c.08-.317.197-.634.276-.912.079-.277.118-.594.197-.832.04-.277.08-.515.118-.792.04-.238.08-.476.08-.674.039-.198.039-.396.078-.594.04-.713.04-1.11.04-1.11l.63.04s-.04.436-.079 1.15c-.039.198-.039.396-.078.594-.04.237-.04.475-.119.713-.04.238-.118.515-.157.792-.08.277-.158.555-.237.872-.079.317-.197.594-.315.95-.118.318-.237.635-.394.991l-.237.476-.118.237-.118.238c-.08.159-.197.317-.276.515-.118.159-.197.317-.316.476-.039.079-.118.158-.157.237l-.158.238-.355.475c-.276.317-.512.634-.827.912-.276.317-.592.554-.907.871l-.473.396a5.768 5.768 0 01-.512.357c-.67.476-1.38.911-2.09 1.308-.709.356-1.458.713-2.167.99-.71.277-1.42.515-2.09.713-.67.198-1.3.396-1.93.515-1.183.278-2.208.515-2.917.634a7.334 7.334 0 01-1.025.317zM50.058 33.24H46.59l-4.967-14.42h3.114l3.548 10.895 3.547-10.896h3.114l3.547 10.896 3.548-10.896h3.114l-4.849 14.422h-3.468l-3.39-9.865-3.39 9.865zM78.871 33.24h-2.759V31.3c-1.182 1.426-2.759 2.139-4.77 2.139-1.497 0-2.719-.436-3.704-1.268-.986-.832-1.459-1.98-1.459-3.407 0-1.426.513-2.496 1.577-3.17 1.025-.713 2.444-1.07 4.218-1.07h3.902v-.554c0-1.902-1.064-2.892-3.193-2.892-1.34 0-2.72.475-4.139 1.466l-1.34-1.902c1.735-1.387 3.705-2.1 5.952-2.1 1.695 0 3.075.436 4.139 1.268 1.064.872 1.616 2.219 1.616 4.041v9.39h-.04zm-3.035-5.387v-1.229h-3.39c-2.167 0-3.27.674-3.27 2.06 0 .714.275 1.229.827 1.625.552.357 1.3.555 2.246.555.947 0 1.814-.278 2.523-.832.71-.515 1.064-1.229 1.064-2.18zM95.269 18.82v12.559c0 2.535-.67 4.477-2.05 5.745-1.38 1.267-3.153 1.901-5.282 1.901-2.168 0-4.099-.673-5.833-2.02l1.419-2.298c1.419 1.07 2.798 1.585 4.257 1.585 1.419 0 2.562-.357 3.39-1.11.827-.753 1.26-1.941 1.26-3.566v-1.862a5.002 5.002 0 01-1.93 2.021c-.828.515-1.774.753-2.8.753-1.891 0-3.468-.674-4.69-2.02-1.222-1.348-1.852-3.012-1.852-4.993 0-1.98.63-3.645 1.852-4.992s2.799-2.02 4.69-2.02c1.893 0 3.43.792 4.612 2.377v-2.14h2.957v.08zm-11.195 6.655c0 1.189.355 2.22 1.104 3.051.71.872 1.695 1.268 2.956 1.268 1.222 0 2.247-.396 2.996-1.228.749-.832 1.143-1.862 1.143-3.09 0-1.229-.394-2.299-1.143-3.13-.788-.872-1.774-1.268-2.996-1.268s-2.207.436-2.916 1.347c-.789.832-1.144 1.862-1.144 3.05zM102.836 21.236v7.33c0 .673.198 1.228.552 1.624.355.396.867.594 1.498.594s1.261-.316 1.853-.95l1.222 2.139c-1.065.95-2.247 1.426-3.508 1.426-1.301 0-2.365-.435-3.272-1.347-.907-.911-1.38-2.1-1.38-3.605v-7.21h-1.813V18.78h1.813v-4.477h3.035v4.516h3.784v2.457h-3.784v-.04zM121.993 33.24h-2.759V31.3c-1.183 1.426-2.759 2.139-4.77 2.139-1.498 0-2.719-.436-3.705-1.268-.985-.832-1.458-1.98-1.458-3.407 0-1.426.512-2.496 1.576-3.17 1.025-.713 2.444-1.07 4.218-1.07h3.902v-.554c0-1.902-1.064-2.892-3.193-2.892-1.34 0-2.719.475-4.138 1.466l-1.34-1.902c1.734-1.387 3.705-2.1 5.951-2.1 1.695 0 3.075.436 4.139 1.268 1.064.872 1.616 2.219 1.616 4.041v9.39h-.039zm-3.035-5.387v-1.229h-3.39c-2.168 0-3.272.674-3.272 2.06 0 .714.276 1.229.828 1.625.552.357 1.301.555 2.247.555s1.813-.278 2.522-.832c.71-.515 1.065-1.229 1.065-2.18zM125.855 15.927a1.8 1.8 0 01-.552-1.347c0-.515.198-.99.552-1.347a1.781 1.781 0 011.34-.555c.513 0 .986.198 1.341.555a1.8 1.8 0 01.551 1.347c0 .515-.197.99-.551 1.347a1.873 1.873 0 01-1.341.555c-.512.04-.946-.159-1.34-.555zm2.838 17.314h-3.035V18.819h3.035v14.422zM135 33.24h-3.035V13.115H135v20.127z"
            fill="#fff"
        />
    </symbol>
    <symbol id="arrow-back" viewBox="0 0 24 24">
        <path
            fill="#007C7F"
            d="M11.67 3.87L9.9 2.1 0 12l9.9 9.9 1.77-1.77L3.54 12l8.13-8.13z"
        />
    </symbol>
    <svg id="launch" viewBox="0 0 24 24">
        <path
            fill="#007C7F"
            d="M19 19H5V5h7V3H5a2 2 0 00-2 2v14a2 2 0 002 2h14c1.1 0 2-.9 2-2v-7h-2v7zM14 3v2h3.59l-9.83 9.83 1.41 1.41L19 6.41V10h2V3h-7z"
            opacity=".8"
        />
    </svg>
</svg>
<svg xmlns="http://www.w3.org/2000/svg" display="none">
    <symbol id="footer-logo" viewBox="0 0 185 50">
        <g opacity=".4" fill="#007C7F">
            <path d="M139.792 33h4.592V13.176h-4.592V33zm10.417-15.764c1.568 0 2.744-1.204 2.744-2.744 0-1.54-1.176-2.744-2.744-2.744-1.568 0-2.744 1.204-2.744 2.744 0 1.54 1.176 2.744 2.744 2.744zM147.913 33h4.592V18.888h-4.592V33zm11.592 0h4.032l4.9-14.112h-4.592l-2.324 7.896-2.324-7.896h-4.592l4.9 14.112zm23.993-7.336c0-2.968-1.596-7-6.916-7-5.096 0-7.112 3.948-7.112 7.28 0 3.332 2.016 7.28 7.112 7.28 3.416 0 5.516-1.54 6.692-4.116l-3.64-1.288c-.756 1.26-1.596 1.68-2.856 1.68-1.232 0-2.38-.616-2.8-2.156h9.52v-1.68zm-9.464-1.512c.448-1.512 1.456-2.156 2.548-2.156 1.568 0 2.436.952 2.576 2.156h-5.124z"/>
            <path d="M139.792 33h4.592V13.176h-4.592V33zm10.417-15.764c1.568 0 2.744-1.204 2.744-2.744 0-1.54-1.176-2.744-2.744-2.744-1.568 0-2.744 1.204-2.744 2.744 0 1.54 1.176 2.744 2.744 2.744zM147.913 33h4.592V18.888h-4.592V33zm11.592 0h4.032l4.9-14.112h-4.592l-2.324 7.896-2.324-7.896h-4.592l4.9 14.112zm23.993-7.336c0-2.968-1.596-7-6.916-7-5.096 0-7.112 3.948-7.112 7.28 0 3.332 2.016 7.28 7.112 7.28 3.416 0 5.516-1.54 6.692-4.116l-3.64-1.288c-.756 1.26-1.596 1.68-2.856 1.68-1.232 0-2.38-.616-2.8-2.156h9.52v-1.68zm-9.464-1.512c.448-1.512 1.456-2.156 2.548-2.156 1.568 0 2.436.952 2.576 2.156h-5.124z"/>
        </g>
        <path d="M33.11.753V3.01s-4.021-1.505-6.622 1.228c-1.892 1.981-2.05 4.2-1.183 7.172 8.514 0 9.854 4.793 9.854 4.793l-.867-5.507 2.68-3.288c0-3.883-3.192-6.458-3.863-6.656z" fill="#fff"/>
        <path d="M33.858 7.33c.566 0 1.025-.462 1.025-1.03 0-.57-.459-1.03-1.025-1.03-.566 0-1.024.46-1.024 1.03 0 .568.458 1.03 1.024 1.03z" fill="#000"/>
        <path d="M35.16 16.204s-1.302-6.576-9.815-4.793c-.868-2.972-.71-5.151 1.182-7.172 2.562-2.733 6.582-1.228 6.582-1.228V.753C31.69.119 30.35 0 28.853 0c-5.48 0-8.514 4.12-9.815 6.894L3.626 35.38l4.336-.832L0 50l5.558-.99 4.257-12.164c12.06 0 27.512-4.358 25.344-20.642z" fill="#000"/>
        <path d="M40.362 10.697l-3.39-3.288-2.68 3.288h6.07z" fill="#000"/>
        <path d="M11.825 33.32s.394-.08 1.103-.238a72.04 72.04 0 002.878-.713 25.162 25.162 0 001.892-.594c.67-.238 1.38-.476 2.05-.792.709-.278 1.418-.634 2.128-1.03.71-.397 1.38-.833 2.01-1.348.158-.119.315-.237.473-.396l.473-.396c.276-.277.591-.555.867-.872.276-.277.513-.594.75-.91.117-.16.236-.318.354-.476l.157-.238.158-.238c.079-.158.197-.317.276-.475.079-.159.158-.317.276-.476l.118-.237.119-.238c.078-.159.157-.317.197-.476l.354-.95c.08-.317.197-.634.276-.912.079-.277.118-.594.197-.832.04-.277.08-.515.118-.792.04-.238.08-.476.08-.674.039-.198.039-.396.078-.594.04-.713.04-1.11.04-1.11l.63.04s-.04.436-.079 1.15c-.039.198-.039.396-.078.594-.04.237-.04.475-.119.713-.04.238-.118.515-.157.792-.08.277-.158.555-.237.872-.079.317-.197.594-.315.95-.118.318-.237.635-.394.991l-.237.476-.118.237-.118.238c-.08.159-.197.317-.276.515-.118.159-.197.317-.316.476-.039.079-.118.158-.157.237l-.158.238-.355.475c-.276.317-.512.634-.827.912-.276.317-.592.554-.907.871l-.473.396a5.768 5.768 0 01-.512.357c-.67.476-1.38.911-2.09 1.308-.709.356-1.458.713-2.167.99-.71.277-1.42.515-2.09.713-.67.198-1.3.396-1.93.515-1.183.278-2.208.515-2.917.634a7.334 7.334 0 01-1.025.317zM50.058 33.24H46.59l-4.967-14.42h3.114l3.548 10.895 3.547-10.896h3.114l3.547 10.896 3.548-10.896h3.114l-4.849 14.422h-3.468l-3.39-9.865-3.39 9.865zM78.871 33.24h-2.759V31.3c-1.182 1.426-2.759 2.139-4.77 2.139-1.497 0-2.719-.436-3.704-1.268-.986-.832-1.459-1.98-1.459-3.407 0-1.426.513-2.496 1.577-3.17 1.025-.713 2.444-1.07 4.218-1.07h3.902v-.554c0-1.902-1.064-2.892-3.193-2.892-1.34 0-2.72.475-4.139 1.466l-1.34-1.902c1.735-1.387 3.705-2.1 5.952-2.1 1.695 0 3.075.436 4.139 1.268 1.064.872 1.616 2.219 1.616 4.041v9.39h-.04zm-3.035-5.387v-1.229h-3.39c-2.167 0-3.27.674-3.27 2.06 0 .714.275 1.229.827 1.625.552.357 1.3.555 2.246.555.947 0 1.814-.278 2.523-.832.71-.515 1.064-1.229 1.064-2.18zM95.269 18.82v12.559c0 2.535-.67 4.477-2.05 5.745-1.38 1.267-3.153 1.901-5.282 1.901-2.168 0-4.099-.673-5.833-2.02l1.419-2.298c1.419 1.07 2.798 1.585 4.257 1.585 1.419 0 2.562-.357 3.39-1.11.827-.753 1.26-1.941 1.26-3.566v-1.862a5.002 5.002 0 01-1.93 2.021c-.828.515-1.774.753-2.8.753-1.891 0-3.468-.674-4.69-2.02-1.222-1.348-1.852-3.012-1.852-4.993 0-1.98.63-3.645 1.852-4.992s2.799-2.02 4.69-2.02c1.893 0 3.43.792 4.612 2.377v-2.14h2.957v.08zm-11.195 6.655c0 1.189.355 2.22 1.104 3.051.71.872 1.695 1.268 2.956 1.268 1.222 0 2.247-.396 2.996-1.228.749-.832 1.143-1.862 1.143-3.09 0-1.229-.394-2.299-1.143-3.13-.788-.872-1.774-1.268-2.996-1.268s-2.207.436-2.916 1.347c-.789.832-1.144 1.862-1.144 3.05zM102.836 21.236v7.33c0 .673.198 1.228.552 1.624.355.396.867.594 1.498.594s1.261-.316 1.853-.95l1.222 2.139c-1.065.95-2.247 1.426-3.508 1.426-1.301 0-2.365-.435-3.272-1.347-.907-.911-1.38-2.1-1.38-3.605v-7.21h-1.813V18.78h1.813v-4.477h3.035v4.516h3.784v2.457h-3.784v-.04zM121.993 33.24h-2.759V31.3c-1.183 1.426-2.759 2.139-4.77 2.139-1.498 0-2.719-.436-3.705-1.268-.985-.832-1.458-1.98-1.458-3.407 0-1.426.512-2.496 1.576-3.17 1.025-.713 2.444-1.07 4.218-1.07h3.902v-.554c0-1.902-1.064-2.892-3.193-2.892-1.34 0-2.719.475-4.138 1.466l-1.34-1.902c1.734-1.387 3.705-2.1 5.951-2.1 1.695 0 3.075.436 4.139 1.268 1.064.872 1.616 2.219 1.616 4.041v9.39h-.039zm-3.035-5.387v-1.229h-3.39c-2.168 0-3.272.674-3.272 2.06 0 .714.276 1.229.828 1.625.552.357 1.301.555 2.247.555s1.813-.278 2.522-.832c.71-.515 1.065-1.229 1.065-2.18zM125.855 15.927a1.8 1.8 0 01-.552-1.347c0-.515.198-.99.552-1.347a1.781 1.781 0 011.34-.555c.513 0 .986.198 1.341.555a1.8 1.8 0 01.551 1.347c0 .515-.197.99-.551 1.347a1.873 1.873 0 01-1.341.555c-.512.04-.946-.159-1.34-.555zm2.838 17.314h-3.035V18.819h3.035v14.422zM135 33.24h-3.035V13.115H135v20.127z" fill="#000"/>
    </symbol>
</svg>