<svg xmlns="http://www.w3.org/2000/svg" fill="none" viewBox="0 0 213 58">
  <g fill="#007C7F" opacity=".4">
    <path d="M162.159 38.28h5.326V15.284h-5.326V38.28zM174.243 19.994c1.818 0 3.183-1.397 3.183-3.183 0-1.787-1.365-3.183-3.183-3.183-1.819 0-3.184 1.396-3.184 3.183 0 1.786 1.365 3.183 3.184 3.183zm-2.664 18.286h5.327V21.91h-5.327v16.37zM185.026 38.28h4.677l5.684-16.37h-5.327l-2.696 9.16-2.696-9.16h-5.326l5.684 16.37zM212.858 29.77c0-3.443-1.851-8.12-8.023-8.12-5.911 0-8.25 4.58-8.25 8.445s2.339 8.445 8.25 8.445c3.963 0 6.399-1.787 7.763-4.775l-4.222-1.494c-.877 1.462-1.852 1.949-3.313 1.949-1.429 0-2.761-.715-3.248-2.501h11.043V29.77zm-10.978-1.754c.519-1.754 1.689-2.5 2.955-2.5 1.819 0 2.826 1.104 2.989 2.5h-5.944z"/>
  </g>
  <path fill="#000" d="M58.068 38.56h-4.024l-5.76-16.73h3.611l4.115 12.64 4.115-12.64h3.612l4.115 12.64 4.115-12.64h3.612l-5.623 16.73h-4.024L62 27.115l-3.932 11.443zM91.491 38.56h-3.2v-2.253c-1.372 1.655-3.201 2.482-5.533 2.482-1.737 0-3.155-.505-4.298-1.47-1.143-.966-1.692-2.298-1.692-3.953 0-1.654.595-2.895 1.83-3.677 1.188-.827 2.834-1.24 4.892-1.24h4.526v-.644c0-2.206-1.234-3.355-3.704-3.355-1.554 0-3.154.552-4.8 1.7l-1.555-2.205c2.012-1.609 4.298-2.436 6.904-2.436 1.966 0 3.567.505 4.801 1.47 1.235 1.012 1.875 2.574 1.875 4.688V38.56h-.046zm-3.52-6.251v-1.425h-3.933c-2.514 0-3.795.782-3.795 2.39 0 .827.32 1.425.96 1.884.64.414 1.51.644 2.607.644 1.097 0 2.103-.322 2.926-.965.823-.598 1.234-1.425 1.234-2.528zM110.512 21.83V36.4c0 2.94-.778 5.193-2.378 6.663-1.6 1.471-3.658 2.206-6.127 2.206-2.514 0-4.755-.78-6.767-2.343l1.646-2.666c1.646 1.24 3.247 1.838 4.938 1.838 1.646 0 2.972-.413 3.932-1.287.961-.873 1.464-2.252 1.464-4.136v-2.16a5.805 5.805 0 01-2.241 2.344c-.96.597-2.057.873-3.246.873-2.195 0-4.024-.781-5.441-2.344-1.418-1.562-2.15-3.493-2.15-5.79 0-2.299.733-4.229 2.15-5.791 1.417-1.563 3.246-2.344 5.441-2.344s3.978.919 5.349 2.757v-2.482h3.43v.092zm-12.986 7.722c0 1.378.412 2.573 1.28 3.538.824 1.011 1.967 1.471 3.43 1.471 1.417 0 2.606-.46 3.475-1.425.869-.965 1.326-2.16 1.326-3.585 0-1.424-.457-2.665-1.326-3.63-.915-1.011-2.058-1.47-3.475-1.47-1.418 0-2.56.505-3.384 1.562-.914.965-1.326 2.16-1.326 3.538zM119.29 24.634v8.502c0 .782.229 1.425.64 1.885.412.46 1.006.689 1.738.689s1.463-.368 2.149-1.103l1.417 2.482c-1.234 1.103-2.606 1.654-4.069 1.654-1.509 0-2.743-.505-3.795-1.562s-1.6-2.436-1.6-4.183v-8.364h-2.103v-2.85h2.103v-5.193h3.52v5.24h4.39v2.849h-4.39v-.046zM141.512 38.56h-3.201v-2.253c-1.372 1.655-3.201 2.482-5.533 2.482-1.737 0-3.154-.505-4.297-1.47-1.144-.966-1.692-2.298-1.692-3.953 0-1.654.594-2.895 1.829-3.677 1.189-.827 2.835-1.24 4.892-1.24h4.527v-.644c0-2.206-1.235-3.355-3.704-3.355-1.555 0-3.155.552-4.801 1.7l-1.554-2.205c2.011-1.609 4.298-2.436 6.904-2.436 1.966 0 3.566.505 4.801 1.47 1.234 1.012 1.874 2.574 1.874 4.688V38.56h-.045zm-3.521-6.251v-1.425h-3.932c-2.515 0-3.795.782-3.795 2.39 0 .827.32 1.425.96 1.884.64.414 1.509.644 2.606.644s2.103-.322 2.926-.965c.823-.598 1.235-1.425 1.235-2.528zM145.992 18.475c-.457-.46-.64-.965-.64-1.562 0-.598.229-1.15.64-1.563.458-.46.96-.643 1.555-.643.594 0 1.143.23 1.554.643.458.46.641.965.641 1.563a2.193 2.193 0 01-2.195 2.206c-.595.046-1.097-.184-1.555-.644zm3.292 20.084h-3.52V21.83h3.52v16.73zM156.6 38.56h-3.521V15.211h3.521V38.56z"/>
  <path fill="#fff" d="M38.407.873v2.62s-4.664-1.747-7.681 1.425c-2.195 2.298-2.378 4.871-1.372 8.318 9.876 0 11.43 5.561 11.43 5.561L39.78 12.41l3.109-3.815c0-4.504-3.704-7.491-4.481-7.72z"/>
  <path fill="#000" d="M39.276 8.502c.656 0 1.188-.535 1.188-1.195s-.532-1.194-1.188-1.194c-.657 0-1.19.535-1.19 1.194 0 .66.533 1.195 1.19 1.195zM46.82 12.409l-3.932-3.815-3.11 3.815h7.042z"/>
  <path fill="#000" d="M40.785 18.797s-1.51-7.629-11.385-5.56c-1.006-3.448-.823-5.976 1.371-8.32 2.972-3.17 7.636-1.424 7.636-1.424V.873C36.761.138 35.207 0 33.469 0c-6.356 0-9.876 4.78-11.385 7.997L4.206 41.04l5.03-.965L0 58l6.447-1.149 4.938-14.11c13.991 0 31.914-5.055 29.4-23.944z"/>
  <path fill="#fff" d="M13.717 38.651s.457-.092 1.28-.275c.823-.184 1.966-.46 3.338-.828a29.2 29.2 0 002.194-.69c.778-.275 1.6-.55 2.378-.918.823-.322 1.646-.736 2.47-1.195a15.9 15.9 0 002.33-1.563c.184-.138.367-.276.55-.46l.548-.459c.32-.322.686-.643 1.006-1.011.32-.322.595-.69.869-1.057l.411-.552.183-.275.183-.276c.092-.184.229-.368.32-.552.092-.183.183-.367.32-.551l.137-.276.138-.276c.091-.183.182-.367.228-.551l.412-1.103c.091-.368.228-.736.32-1.057.091-.322.137-.69.228-.965.046-.322.092-.598.138-.92.045-.275.091-.551.091-.78.046-.23.046-.46.091-.69.046-.827.046-1.287.046-1.287l.732.046s-.046.506-.092 1.333c-.045.23-.045.46-.091.69-.046.275-.046.55-.137.826-.046.276-.138.598-.183.92-.092.321-.183.643-.275 1.01-.091.368-.228.69-.365 1.104-.138.367-.275.735-.458 1.149l-.274.551-.137.276-.137.276c-.092.183-.229.367-.32.597-.137.184-.229.368-.366.552-.046.091-.137.183-.183.275l-.183.276-.411.552c-.32.367-.595.735-.96 1.057-.32.367-.686.643-1.052 1.01l-.549.46c-.183.138-.366.276-.594.414-.777.552-1.6 1.057-2.423 1.517-.823.413-1.692.827-2.515 1.149-.823.321-1.646.597-2.424.827-.777.23-1.508.46-2.24.597-1.372.322-2.56.598-3.383.736-.732.275-1.19.367-1.19.367z"/>
</svg>
